<?xml version="1.0" encoding="UTF-8" standalone="no"?>
<!-- Generator: Adobe Illustrator 23.1.0, SVG Export Plug-In . SVG Version: 6.00 Build 0)  -->

<svg
   version="1.1"
   id="图层_1"
   x="0px"
   y="0px"
   viewBox="0 0 750 750"
   enable-background="new 0 0 750 750"
   xml:space="preserve"
   sodipodi:docname="logo.svg"
   inkscape:version="1.3 (0e150ed6c4, 2023-07-21)"
   xmlns:inkscape="http://www.inkscape.org/namespaces/inkscape"
   xmlns:sodipodi="http://sodipodi.sourceforge.net/DTD/sodipodi-0.dtd"
   xmlns="http://www.w3.org/2000/svg"
   xmlns:svg="http://www.w3.org/2000/svg"><defs
   id="defs74" /><sodipodi:namedview
   id="namedview74"
   pagecolor="#ffffff"
   bordercolor="#000000"
   borderopacity="0.25"
   inkscape:showpageshadow="2"
   inkscape:pageopacity="0.0"
   inkscape:pagecheckerboard="0"
   inkscape:deskcolor="#d1d1d1"
   inkscape:zoom="0.5"
   inkscape:cx="375"
   inkscape:cy="429"
   inkscape:window-width="1920"
   inkscape:window-height="991"
   inkscape:window-x="-9"
   inkscape:window-y="-9"
   inkscape:window-maximized="1"
   inkscape:current-layer="图层_1" />&#10;<g
   id="图层_2"
   transform="matrix(2.5,0,0,2.5,-602.61207,-573.708)">&#10;	<g
   id="g2">&#10;		<g
   id="g1">&#10;			<path
   fill="#516e8b"
   d="m 348.06,293.4 c -7.45,18.97 -13.68,38.42 -18.62,58.2 -1.4,5.62 -2.7,11.26 -3.9,16.92 -0.66,3.14 4.16,4.48 4.82,1.33 4.22,-19.94 9.71,-39.61 16.46,-58.84 1.92,-5.46 3.94,-10.89 6.06,-16.28 0.49,-1.26 -0.54,-2.74 -1.75,-3.08 -1.41,-0.39 -2.57,0.49 -3.07,1.75 z"
   id="path1" />&#10;		</g>&#10;	</g>&#10;	<g
   id="g4">&#10;		<g
   id="g3">&#10;			<path
   fill="#516e8b"
   d="m 348.8,293.11 c 7.66,8.25 15.63,16.2 23.92,23.82 2.36,2.18 5.91,-1.35 3.54,-3.54 -8.28,-7.62 -16.26,-15.57 -23.92,-23.82 -2.19,-2.36 -5.72,1.18 -3.54,3.54 z"
   id="path2" />&#10;		</g>&#10;	</g>&#10;	<g
   id="g6">&#10;		<g
   id="g5">&#10;			<path
   fill="#516e8b"
   d="m 373.2,316.03 c 15.74,-6.61 33.38,-8 49.93,-3.74 3.12,0.8 4.45,-4.02 1.33,-4.82 -17.35,-4.47 -36.06,-3.2 -52.59,3.74 -1.24,0.52 -2.14,1.65 -1.75,3.08 0.33,1.17 1.83,2.26 3.08,1.74 z"
   id="path4" />&#10;		</g>&#10;	</g>&#10;	<g
   id="g8">&#10;		<g
   id="g7">&#10;			<path
   fill="#516e8b"
   d="m 423.84,312.95 c 5.58,0.7 11.2,2.82 16.06,5.95 1.14,0.73 2.76,0.23 3.42,-0.9 0.71,-1.21 0.24,-2.69 -0.9,-3.42 -5.62,-3.62 -11.96,-5.8 -18.59,-6.63 -1.34,-0.17 -2.5,1.27 -2.5,2.5 0.01,1.49 1.16,2.34 2.51,2.5 z"
   id="path6" />&#10;		</g>&#10;	</g>&#10;	<g
   id="g10">&#10;		<g
   id="g9">&#10;			<path
   fill="#516e8b"
   d="m 444.54,318.73 c 9.56,-7.7 19.53,-14.89 29.82,-21.57 2.69,-1.75 0.19,-6.08 -2.52,-4.32 -10.65,6.92 -20.94,14.39 -30.83,22.35 -1.05,0.85 -0.88,2.65 0,3.54 1.04,1.04 2.48,0.85 3.53,0 z"
   id="path8" />&#10;		</g>&#10;	</g>&#10;	<g
   id="g12">&#10;		<g
   id="g11">&#10;			<path
   fill="#516e8b"
   d="m 472.1,296.85 c 2.64,21.42 -1.32,42.82 -2.02,64.23 -0.19,6.03 -0.11,12.06 0.42,18.07 0.12,1.34 1.06,2.5 2.5,2.5 1.26,0 2.62,-1.15 2.5,-2.5 -1.93,-21.48 2.19,-42.83 2.49,-64.28 0.08,-6.02 -0.16,-12.04 -0.9,-18.02 -0.17,-1.34 -1.03,-2.5 -2.5,-2.5 -1.21,0 -2.65,1.15 -2.49,2.5 z"
   id="path10" />&#10;		</g>&#10;	</g>&#10;	<g
   id="g14">&#10;		<g
   id="g13">&#10;			<path
   fill="#516e8b"
   d="m 379.76,350.21 c 0.2,-0.18 0.41,-0.36 0.61,-0.55 0.24,-0.23 0.42,-0.49 0.52,-0.8 0.16,-0.3 0.23,-0.62 0.22,-0.96 0.01,-0.34 -0.06,-0.67 -0.22,-0.96 -0.1,-0.31 -0.27,-0.58 -0.52,-0.8 -0.17,-0.13 -0.34,-0.26 -0.51,-0.39 -0.39,-0.23 -0.81,-0.34 -1.26,-0.34 -0.22,0.03 -0.44,0.06 -0.66,0.09 -0.42,0.12 -0.79,0.33 -1.1,0.64 -0.2,0.18 -0.41,0.36 -0.61,0.55 -0.24,0.23 -0.42,0.49 -0.52,0.8 -0.16,0.3 -0.23,0.62 -0.22,0.96 -0.01,0.34 0.06,0.67 0.22,0.96 0.1,0.31 0.27,0.58 0.52,0.8 0.17,0.13 0.34,0.26 0.51,0.39 0.39,0.23 0.81,0.34 1.26,0.34 0.22,-0.03 0.44,-0.06 0.66,-0.09 0.42,-0.12 0.79,-0.33 1.1,-0.64 z"
   id="path12" />&#10;		</g>&#10;	</g>&#10;	<g
   id="g16">&#10;		<g
   id="g15">&#10;			<path
   fill="#516e8b"
   d="m 432.04,352.46 c 0.13,-0.13 0.25,-0.25 0.38,-0.38 0.24,-0.23 0.42,-0.49 0.52,-0.8 0.16,-0.3 0.23,-0.62 0.22,-0.96 0.01,-0.34 -0.06,-0.67 -0.22,-0.96 -0.1,-0.31 -0.27,-0.58 -0.52,-0.8 -0.17,-0.13 -0.34,-0.26 -0.51,-0.39 -0.39,-0.23 -0.81,-0.34 -1.26,-0.34 -0.22,0.03 -0.44,0.06 -0.66,0.09 -0.42,0.12 -0.79,0.33 -1.1,0.64 -0.13,0.13 -0.25,0.25 -0.38,0.38 -0.24,0.23 -0.42,0.49 -0.52,0.8 -0.16,0.3 -0.23,0.62 -0.22,0.96 -0.01,0.34 0.06,0.67 0.22,0.96 0.1,0.31 0.27,0.58 0.52,0.8 0.17,0.13 0.34,0.26 0.51,0.39 0.39,0.23 0.81,0.34 1.26,0.34 0.22,-0.03 0.44,-0.06 0.66,-0.09 0.42,-0.11 0.79,-0.33 1.1,-0.64 z"
   id="path14" />&#10;		</g>&#10;	</g>&#10;	<g
   id="g18">&#10;		<g
   id="g17">&#10;			<path
   fill="#516e8b"
   d="m 450.77,382.82 c -12.39,-1.3 -21.63,8.48 -28.92,17.06 -0.87,1.03 -1.01,2.53 0,3.54 0.9,0.9 2.66,1.03 3.54,0 6.44,-7.58 14.36,-16.75 25.39,-15.6 1.34,0.14 2.5,-1.25 2.5,-2.5 -0.01,-1.47 -1.16,-2.36 -2.51,-2.5 z"
   id="path16" />&#10;		</g>&#10;	</g>&#10;	<g
   id="g20">&#10;		<g
   id="g19">&#10;			<path
   fill="#516e8b"
   d="m 421.98,399.35 c -3.07,5.32 -5.44,11.76 -3.73,17.93 1.48,5.34 5.74,9.59 11.33,10.21 1.34,0.15 2.5,-1.26 2.5,-2.5 0,-1.48 -1.15,-2.35 -2.5,-2.5 -3.55,-0.4 -5.97,-3.99 -6.67,-7.21 -1.02,-4.63 1.12,-9.48 3.39,-13.41 1.6,-2.79 -2.71,-5.31 -4.32,-2.52 z"
   id="path18" />&#10;		</g>&#10;	</g>&#10;	<g
   id="g22">&#10;		<g
   id="g21">&#10;			<path
   fill="#516e8b"
   d="m 424.4,425.55 c 3.85,3.82 9.08,1.83 13.35,0.01 4.48,-1.91 8.83,-4.08 13.05,-6.49 2.79,-1.6 0.28,-5.92 -2.52,-4.32 -3.59,2.05 -7.28,3.94 -11.06,5.62 -1.77,0.79 -3.58,1.64 -5.46,2.16 -1.29,0.35 -2.8,0.5 -3.83,-0.51 -2.28,-2.28 -5.82,1.25 -3.53,3.53 z"
   id="path20" />&#10;		</g>&#10;	</g>&#10;	<g
   id="g24">&#10;		<g
   id="g23">&#10;			<path
   fill="#516e8b"
   d="m 450.19,419.86 c 4.85,-3.91 10.62,-6.65 16.73,-8.11 1.31,-0.31 2.09,-1.81 1.75,-3.08 -0.37,-1.34 -1.76,-2.06 -3.08,-1.75 -6.96,1.66 -13.38,4.92 -18.93,9.39 -1.05,0.85 -0.88,2.65 0,3.54 1.03,1.05 2.47,0.86 3.53,0.01 z"
   id="path22" />&#10;		</g>&#10;	</g>&#10;	<g
   id="g26">&#10;		<g
   id="g25">&#10;			<path
   fill="#516e8b"
   d="m 464.25,412.34 c 0.13,0.01 0.26,0.02 0.39,0.04 -0.22,-0.03 -0.44,-0.06 -0.66,-0.09 0.52,0.07 1.01,0.21 1.49,0.41 -0.2,-0.08 -0.4,-0.17 -0.6,-0.25 0.28,0.12 0.55,0.26 0.81,0.42 0.11,0.07 0.22,0.14 0.33,0.21 0.07,0.05 0.14,0.1 0.21,0.15 -0.1,-0.08 -0.2,-0.15 -0.3,-0.23 0.48,0.32 0.91,0.81 1.27,1.25 0.38,0.45 -0.31,-0.45 -0.02,-0.03 0.08,0.12 0.17,0.24 0.25,0.36 0.18,0.26 0.34,0.54 0.5,0.81 0.32,0.58 0.6,1.18 0.86,1.79 -0.08,-0.2 -0.17,-0.4 -0.25,-0.6 0.32,0.77 0.61,1.56 0.9,2.34 0.23,0.62 0.56,1.15 1.15,1.49 0.54,0.31 1.33,0.45 1.93,0.25 1.2,-0.39 2.23,-1.76 1.75,-3.08 -0.89,-2.44 -1.83,-4.81 -3.48,-6.83 -1.62,-1.98 -3.98,-3.26 -6.53,-3.42 -1.31,-0.08 -2.56,1.21 -2.5,2.5 0.07,1.44 1.1,2.42 2.5,2.51 z"
   id="path24" />&#10;		</g>&#10;	</g>&#10;	<path
   fill="none"
   stroke="#516e8b"
   stroke-miterlimit="10"
   d="M 392.76,380.25"
   id="path26" />&#10;	<g
   id="g28">&#10;		<g
   id="g27">&#10;			<path
   fill="#516e8b"
   d="m 389.13,383.07 c -4.29,3.73 -7.75,8.46 -9.99,13.69 -0.51,1.2 -0.4,2.74 0.9,3.42 1.07,0.57 2.87,0.39 3.42,-0.9 1.07,-2.49 2.4,-4.86 3.99,-7.05 0.09,-0.12 0.17,-0.24 0.26,-0.35 0.03,-0.05 0.39,-0.52 0.2,-0.27 -0.17,0.22 0.11,-0.14 0.14,-0.18 0.11,-0.14 0.23,-0.29 0.34,-0.43 0.42,-0.51 0.85,-1.01 1.29,-1.49 0.94,-1.03 1.94,-1.99 2.98,-2.9 0.99,-0.86 0.95,-2.67 0,-3.54 -1.05,-0.96 -2.47,-0.92 -3.53,0 z"
   id="path27" />&#10;		</g>&#10;	</g>&#10;	<g
   id="g30">&#10;		<g
   id="g29">&#10;			<path
   fill="#516e8b"
   d="m 383.02,387.71 c -3.41,5.29 -5.93,11.17 -7.39,17.28 -0.3,1.27 0.4,2.77 1.75,3.08 1.28,0.29 2.75,-0.39 3.08,-1.75 1.4,-5.82 3.64,-11.06 6.89,-16.09 0.73,-1.13 0.23,-2.76 -0.9,-3.42 -1.22,-0.71 -2.7,-0.24 -3.43,0.9 z"
   id="path28" />&#10;		</g>&#10;	</g>&#10;	<g
   id="g32">&#10;		<g
   id="g31">&#10;			<path
   fill="#516e8b"
   d="m 384.99,392.96 c 1.64,-1.89 3.29,-3.79 4.93,-5.68 0.44,-0.51 0.73,-1.08 0.73,-1.77 0,-0.61 -0.27,-1.35 -0.73,-1.77 -0.48,-0.44 -1.1,-0.76 -1.77,-0.73 -0.64,0.03 -1.34,0.23 -1.77,0.73 -1.64,1.89 -3.29,3.79 -4.93,5.68 -0.44,0.51 -0.73,1.08 -0.73,1.77 0,0.61 0.27,1.35 0.73,1.77 0.48,0.44 1.1,0.76 1.77,0.73 0.64,-0.03 1.34,-0.23 1.77,-0.73 z"
   id="path30" />&#10;		</g>&#10;	</g>&#10;	<g
   id="g34">&#10;		<g
   id="g33">&#10;			<path
   fill="#516e8b"
   d="m 400.25,405.16 c 0.49,1.9 0.99,3.8 1.48,5.69 0.16,0.6 0.61,1.18 1.15,1.49 0.54,0.31 1.33,0.45 1.93,0.25 1.3,-0.42 2.1,-1.72 1.75,-3.08 -0.49,-1.9 -0.99,-3.8 -1.48,-5.69 -0.16,-0.6 -0.61,-1.18 -1.15,-1.49 -0.54,-0.31 -1.33,-0.45 -1.93,-0.25 -1.3,0.42 -2.1,1.72 -1.75,3.08 z"
   id="path32" />&#10;		</g>&#10;	</g>&#10;	<g
   id="g36">&#10;		<g
   id="g35">&#10;			<path
   fill="#516e8b"
   d="m 396.29,386.18 c -0.02,0.01 -0.05,0.02 -0.07,0.03 -0.44,0 -0.89,0 -1.33,0 0.29,0.06 1.11,1.75 1.31,2.09 0.59,0.98 1.15,1.98 1.68,2.99 0.98,1.89 1.85,3.84 2.59,5.84 1.53,4.13 2.62,8.46 3.16,12.83 1.09,8.89 0.2,17.96 -2.7,26.43 -1.62,4.73 -3.92,9.19 -6.77,13.3 -0.77,1.11 -0.2,2.78 0.9,3.42 1.24,0.73 2.65,0.21 3.42,-0.9 11.56,-16.63 13.77,-39.29 6.2,-58.01 -1.06,-2.61 -2.26,-5.17 -3.67,-7.61 -1.32,-2.29 -3.92,-7.13 -7.24,-4.73 -1.09,0.79 -1.62,2.18 -0.9,3.42 0.63,1.08 2.31,1.69 3.42,0.9 z"
   id="path34" />&#10;		</g>&#10;	</g>&#10;	<g
   id="g38">&#10;		<g
   id="g37">&#10;			<path
   fill="#516e8b"
   d="m 394.9,450.42 c 2.12,2.9 4.23,5.82 5.97,8.98 0.79,1.44 1.51,2.92 2.06,4.47 0.3,0.85 0.55,1.71 0.76,2.58 0.02,0.1 0.31,1.32 0.27,1.33 -0.05,0.01 0.23,-0.62 0.27,-0.65 0.37,-0.21 0.74,-0.43 1.1,-0.64 0.1,-0.02 0.19,-0.03 0.29,-0.05 -1.35,-0.11 -2.5,1.23 -2.5,2.5 0,1.44 1.15,2.39 2.5,2.5 1.47,0.12 2.74,-1.01 3.14,-2.37 0.33,-1.15 0.1,-2.3 -0.14,-3.44 -0.48,-2.25 -1.3,-4.4 -2.27,-6.48 -1.88,-4.03 -4.51,-7.66 -7.12,-11.24 -0.79,-1.09 -2.17,-1.63 -3.42,-0.9 -1.09,0.62 -1.71,2.31 -0.91,3.41 z"
   id="path36" />&#10;		</g>&#10;	</g>&#10;	<g
   id="g40">&#10;		<g
   id="g39">&#10;			<path
   fill="#516e8b"
   d="m 381.27,388.18 c -9.69,15.23 -11.88,34.86 -6.35,51.98 1.58,4.88 3.76,9.58 6.55,13.89 1.74,2.69 6.07,0.19 4.32,-2.52 -9.11,-14.12 -11.19,-32.11 -6.16,-48.09 1.42,-4.5 3.43,-8.76 5.96,-12.74 1.73,-2.72 -2.6,-5.23 -4.32,-2.52 z"
   id="path38" />&#10;		</g>&#10;	</g>&#10;	<g
   id="g42">&#10;		<g
   id="g41">&#10;			<path
   fill="#516e8b"
   d="m 380.47,452.84 c -3.96,5.04 -7.07,10.54 -9.32,16.55 -0.62,1.66 0.95,3.03 2.41,3.16 6.53,0.62 13.07,1.14 19.57,2.01 3.19,0.42 6.35,1.21 9.55,1.56 3.17,0.34 6.44,-2.04 5.52,-5.49 -0.83,-3.11 -5.65,-1.79 -4.82,1.33 -0.04,-0.14 0.25,-0.94 0.32,-0.79 -0.01,-0.02 -1.47,-0.16 -1.62,-0.19 -1.28,-0.25 -2.56,-0.48 -3.85,-0.69 -2.79,-0.45 -5.6,-0.82 -8.41,-1.14 -5.41,-0.62 -10.85,-1.09 -16.27,-1.6 0.8,1.05 1.61,2.11 2.41,3.16 1.92,-5.13 4.65,-10.03 8.03,-14.34 0.83,-1.06 1.04,-2.5 0,-3.54 -0.85,-0.85 -2.68,-1.06 -3.52,0.01 z"
   id="path40" />&#10;		</g>&#10;	</g>&#10;	<g
   id="g44">&#10;		<g
   id="g43">&#10;			<path
   fill="#516e8b"
   d="m 405.11,470.06 c 0,-0.13 0,-0.25 0,-0.38 0.01,-0.34 -0.06,-0.67 -0.22,-0.96 -0.1,-0.31 -0.27,-0.58 -0.52,-0.8 -0.23,-0.24 -0.49,-0.42 -0.8,-0.52 -0.3,-0.16 -0.62,-0.23 -0.96,-0.22 -0.22,0.03 -0.44,0.06 -0.66,0.09 -0.42,0.12 -0.79,0.33 -1.1,0.64 -0.13,0.17 -0.26,0.34 -0.39,0.51 -0.23,0.39 -0.34,0.81 -0.34,1.26 0,0.13 0,0.25 0,0.38 -0.01,0.34 0.06,0.67 0.22,0.96 0.1,0.31 0.27,0.58 0.52,0.8 0.23,0.24 0.49,0.42 0.8,0.52 0.3,0.16 0.62,0.23 0.96,0.22 0.22,-0.03 0.44,-0.06 0.66,-0.09 0.42,-0.12 0.79,-0.33 1.1,-0.64 0.13,-0.17 0.26,-0.34 0.39,-0.51 0.23,-0.38 0.34,-0.81 0.34,-1.26 z"
   id="path42" />&#10;		</g>&#10;	</g>&#10;	<g
   id="g46">&#10;		<g
   id="g45">&#10;			<path
   fill="#516e8b"
   d="m 379.13,400.36 c -1.8,6.28 -3.01,12.75 -3.52,19.26 -0.48,6.15 0.01,12.42 2.83,17.99 1.45,2.87 5.77,0.34 4.32,-2.52 -2.48,-4.89 -2.57,-10.55 -2.12,-15.9 0.5,-5.92 1.67,-11.78 3.3,-17.49 0.9,-3.11 -3.92,-4.43 -4.81,-1.34 z"
   id="path44" />&#10;		</g>&#10;	</g>&#10;	<g
   id="g48">&#10;		<g
   id="g47">&#10;			<path
   fill="#516e8b"
   d="m 375.89,417.77 c -0.59,10.59 1.88,21.23 6.99,30.52 1.55,2.82 5.87,0.3 4.32,-2.52 -4.7,-8.55 -6.85,-18.26 -6.31,-27.99 0.18,-3.22 -4.82,-3.21 -5,-0.01 z"
   id="path46" />&#10;		</g>&#10;	</g>&#10;	<g
   id="g50">&#10;		<g
   id="g49">&#10;			<path
   fill="#516e8b"
   d="m 379.59,437.04 c 1.32,4.79 2.63,9.57 3.95,14.36 0.35,1.26 1.79,2.16 3.08,1.75 1.29,-0.42 2.12,-1.72 1.75,-3.08 -1.32,-4.79 -2.63,-9.57 -3.95,-14.36 -0.35,-1.26 -1.79,-2.16 -3.08,-1.75 -1.29,0.42 -2.12,1.73 -1.75,3.08 z"
   id="path48" />&#10;		</g>&#10;	</g>&#10;	<g
   id="g52">&#10;		<g
   id="g51">&#10;			<path
   fill="#516e8b"
   d="m 383.16,449.61 c -0.04,0.52 -0.1,1.05 -0.16,1.57 0.07,-0.59 -0.06,0.35 -0.07,0.45 -0.04,0.22 -0.07,0.44 -0.11,0.67 -0.19,1.03 -0.43,2.06 -0.71,3.07 -0.28,1.01 -0.61,2.01 -0.99,2.99 -0.08,0.21 -0.16,0.42 -0.25,0.63 -0.11,0.27 -0.11,0.28 -0.01,0.03 -0.06,0.14 -0.12,0.28 -0.18,0.41 -0.21,0.48 -0.44,0.95 -0.67,1.42 -0.58,1.17 -0.35,2.76 0.9,3.42 1.13,0.6 2.8,0.35 3.42,-0.9 2.15,-4.33 3.44,-8.94 3.84,-13.76 0.11,-1.31 -1.23,-2.56 -2.5,-2.5 -1.46,0.06 -2.39,1.1 -2.51,2.5 z"
   id="path50" />&#10;		</g>&#10;	</g>&#10;	<g
   id="g54">&#10;		<g
   id="g53">&#10;			<path
   fill="#516e8b"
   d="m 382.53,453.59 c -1.93,3.77 -3.76,7.59 -5.49,11.46 -0.53,1.19 -0.38,2.74 0.9,3.42 1.09,0.58 2.85,0.38 3.42,-0.9 1.73,-3.87 3.56,-7.69 5.49,-11.46 0.59,-1.16 0.34,-2.77 -0.9,-3.42 -1.14,-0.6 -2.78,-0.35 -3.42,0.9 z"
   id="path52" />&#10;		</g>&#10;	</g>&#10;	<g
   id="g56">&#10;		<g
   id="g55">&#10;			<path
   fill="#516e8b"
   d="m 379.51,469.66 c 3.02,-0.37 6.03,-0.75 9.05,-1.12 0.69,-0.09 1.26,-0.22 1.77,-0.73 0.43,-0.43 0.76,-1.15 0.73,-1.77 -0.03,-0.65 -0.24,-1.32 -0.73,-1.77 -0.45,-0.42 -1.13,-0.81 -1.77,-0.73 -3.02,0.37 -6.03,0.75 -9.05,1.12 -0.69,0.09 -1.26,0.22 -1.77,0.73 -0.43,0.43 -0.76,1.15 -0.73,1.77 0.03,0.65 0.24,1.32 0.73,1.77 0.46,0.41 1.13,0.81 1.77,0.73 z"
   id="path54" />&#10;		</g>&#10;	</g>&#10;	<g
   id="g58">&#10;		<g
   id="g57">&#10;			<path
   fill="#516e8b"
   d="m 384.43,468.44 c 2.21,0.53 4.41,1.06 6.62,1.59 1.3,0.31 2.7,0.76 4.02,0.32 1.77,-0.6 2.94,-2.41 2.43,-4.27 -0.35,-1.26 -1.79,-2.16 -3.08,-1.75 -1.29,0.42 -2.12,1.72 -1.75,3.08 -0.12,-0.45 -0.02,-0.97 0.25,-1.34 0.1,-0.16 0.23,-0.29 0.4,-0.38 0.41,-0.15 0.47,-0.18 0.18,-0.1 0.35,-0.04 0.42,-0.06 0.23,-0.06 -0.19,-0.01 -0.12,0 0.22,0.04 -0.11,0.04 -0.4,-0.08 -0.53,-0.11 -0.86,-0.2 -1.73,-0.42 -2.59,-0.62 -1.69,-0.41 -3.39,-0.82 -5.08,-1.22 -1.27,-0.31 -2.77,0.4 -3.08,1.75 -0.27,1.28 0.4,2.74 1.76,3.07 z"
   id="path56" />&#10;		</g>&#10;	</g>&#10;	<g
   id="g60">&#10;		<g
   id="g59">&#10;			<path
   fill="#516e8b"
   d="m 391.54,457.24 c -0.93,-0.75 -1.46,-1.59 -1.47,-2.8 -1.55,0.42 -3.11,0.84 -4.66,1.26 1.7,3.79 3.4,7.59 5.11,11.38 1.17,2.6 5.38,0.75 4.57,-1.93 -1.42,-4.68 -2.37,-9.47 -2.79,-14.34 -1.55,0.42 -3.11,0.84 -4.66,1.26 2.43,3.75 4.18,7.78 5.24,12.13 1.61,-0.44 3.21,-0.89 4.82,-1.33 -1.26,-5.08 -2.24,-10.23 -2.87,-15.42 -1.64,0.22 -3.27,0.44 -4.91,0.66 0.71,2.28 0.95,4.53 0.75,6.91 1.67,0 3.33,0 5,0 0.35,-6.2 1.47,-12.29 3.27,-18.22 -1.64,-0.22 -3.27,-0.44 -4.91,-0.66 -0.58,4.83 -1.5,9.61 -2.68,14.33 -0.79,3.13 3.85,4.39 4.82,1.33 2.62,-8.29 4.13,-16.9 4.55,-25.58 0.07,-1.35 -1.2,-2.5 -2.5,-2.5 -1.48,0 -2.34,1.15 -2.5,2.5 -0.8,6.76 -1.6,13.53 -2.39,20.29 -0.33,2.79 4.37,3.42 4.91,0.66 1.71,-8.67 2.66,-17.48 2.79,-26.31 0.05,-3.24 -4.79,-3.18 -5,0 -0.49,7.38 -0.99,14.76 -1.48,22.15 -0.19,2.77 4.5,3.47 4.91,0.66 0.77,-5.34 1.55,-10.68 2.32,-16.01 -1.64,-0.22 -3.27,-0.44 -4.91,-0.66 -0.93,9.64 -1.86,19.29 -2.79,28.93 1.64,-0.22 3.27,-0.44 4.91,-0.66 -0.15,-0.85 -0.29,-1.71 -0.44,-2.56 -0.21,-1.21 -1.62,-1.96 -2.74,-1.79 -1.29,0.19 -2.06,1.18 -2.17,2.46 -0.26,3.07 0.18,6.19 1.28,9.07 0.4,1.04 1.23,1.84 2.41,1.84 1,0 2.25,-0.77 2.41,-1.84 0.27,-1.86 0.27,-3.56 -0.05,-5.41 -1.61,0.44 -3.21,0.89 -4.82,1.33 0.52,2.67 1.03,5.34 1.55,8 0.53,2.73 5.21,2.15 4.91,-0.66 -0.13,-1.2 -0.26,-2.4 -0.39,-3.6 -1.67,0 -3.33,0 -5,0 0.22,1.74 0.45,3.49 0.67,5.23 0.17,1.34 1.03,2.5 2.5,2.5 1.22,0 2.67,-1.15 2.5,-2.5 -0.23,-1.89 -0.46,-3.78 -0.69,-5.66 -0.16,-1.34 -1.03,-2.5 -2.5,-2.5 -1.37,0 -2.49,1.14 -2.5,2.5 -0.02,1.92 -0.03,3.83 -0.05,5.75 1.25,-0.72 2.51,-1.44 3.76,-2.16 0.52,0.39 0.11,0.32 0.16,-0.03 0.01,-0.07 -0.05,-0.55 -0.05,-0.65 -0.02,-0.8 0.05,-1.6 0.08,-2.39 0.07,-1.9 0.14,-3.8 0.22,-5.7 0.14,-3.72 0.28,-7.44 0.42,-11.15 0.28,-7.52 0.57,-15.04 0.85,-22.56 0.1,-2.75 -4.52,-3.49 -4.91,-0.66 -0.2,1.42 -0.4,2.84 -0.59,4.27 1.64,0.22 3.27,0.44 4.91,0.66 -0.47,-5.64 -0.93,-11.27 -1.4,-16.91 -0.26,-3.17 -4.94,-3.26 -5,0 -0.04,2.27 -0.4,4.43 -1.05,6.6 1.61,0 3.21,0 4.82,0 -0.43,-1.83 -0.86,-3.65 -1.29,-5.48 -0.58,-2.47 -4.15,-2.29 -4.82,0 -1.57,5.35 -3.14,10.69 -4.71,16.04 1.64,0.22 3.27,0.44 4.91,0.66 0,-5.9 -0.65,-11.79 -1.92,-17.55 -0.52,-2.34 -4.37,-2.43 -4.82,0 -1.95,10.56 -3.66,21.57 0.75,31.76 0.99,2.29 4.8,1.11 4.66,-1.26 -0.59,-9.6 -2.11,-19.14 -4.57,-28.45 -0.76,-2.87 -4.66,-2.03 -4.91,0.66 -0.9,9.72 0.88,19.47 4.89,28.35 1.04,2.29 4.75,1.11 4.66,-1.26 -0.42,-10.5 -2.11,-20.93 -5.06,-31.02 -0.66,-2.25 -4.3,-2.51 -4.82,0 -2.49,12.03 -0.29,24.78 6.25,35.2 1.1,1.75 4.05,1.57 4.57,-0.6 1.25,-5.16 1.86,-10.5 1.72,-15.82 -0.1,-3.79 -0.71,-10.25 -5.96,-10.01 -1.43,0.06 -2.39,1.1 -2.5,2.5 -0.68,8.31 0.55,16.76 3.58,24.53 0.41,1.04 1.23,1.84 2.41,1.84 1.07,0 2.15,-0.77 2.41,-1.84 1.14,-4.72 0.29,-9.81 -2.56,-13.78 -1,-1.4 -2.6,-1.6 -3.93,-0.51 -2.85,2.35 -4.09,6.25 -3.89,9.85 0.24,4.35 2.31,8.23 4.4,11.95 1.3,2.3 4.46,1.08 4.66,-1.26 0.37,-4.45 -0.57,-8.84 -2.55,-12.83 -0.49,-0.98 -1.81,-1.43 -2.82,-1.15 -1.13,0.31 -1.73,1.3 -1.84,2.41 -0.46,4.8 0.14,9.69 1.71,14.25 0.36,1.05 1.26,1.84 2.41,1.84 1.01,0 2.25,-0.77 2.41,-1.84 1.33,-8.8 1.84,-17.68 1.42,-26.57 -1.64,0.22 -3.27,0.44 -4.91,0.66 0.52,1.61 0.8,3.3 2.43,4.14 1.5,0.77 3.34,0.43 4.67,-0.52 2.52,-1.8 2.6,-5.4 3.07,-8.17 0.56,-3.29 1.13,-6.58 1.68,-9.88 0.56,-3.33 1.08,-6.73 0.96,-10.12 -0.21,-5.63 -2.26,-11.31 -6.95,-14.71 -2.8,-2.03 -6.19,-2.31 -8.38,0.71 -1.71,2.35 -2.84,5.35 -3.69,8.11 -0.85,2.77 -1.58,5.96 -0.65,8.81 0.83,2.55 2.93,4.44 5.57,4.93 5.81,1.08 10.28,-3.47 11.42,-8.84 0.64,-3.01 0.54,-6.13 -0.06,-9.13 -0.15,-0.77 -0.3,-1.75 -0.71,-2.44 -0.46,-0.79 -1.33,-1.17 -2.16,-1.45 -1.41,-0.48 -2.94,-0.47 -4.37,-0.14 -5.79,1.32 -8.5,8.21 -7.86,13.6 0.41,3.43 2.38,6.52 5.77,7.65 3.2,1.07 6.56,-0.51 8.2,-3.37 1.77,-3.09 1.32,-6.66 0.33,-9.92 -0.9,-2.96 -1.94,-6.17 -4.81,-7.77 -0.87,-0.49 -2.35,-0.48 -3.03,0.39 -3.77,4.78 -5.82,10.64 -5.52,16.77 0.05,1.1 0.74,2.12 1.84,2.41 6,1.6 12.4,-3.91 11.51,-10.12 -0.58,-4.03 -5.89,-2.9 -8.1,-1.07 -2.42,2.01 -3.13,5.1 -1.92,7.95 0.81,1.91 3.36,1.32 4.32,0 1.97,-2.73 2.52,-6.21 1.74,-9.45 -0.57,-2.38 -4.26,-2.39 -4.82,0 -0.79,3.33 -0.65,6.81 0.55,10.03 0.35,0.94 1.03,1.67 2.08,1.79 0.89,0.11 2.09,-0.28 2.49,-1.19 1.7,-3.9 0.53,-8.4 -3.18,-10.68 -1.5,-0.92 -3.11,0.05 -3.67,1.49 -0.82,2.09 -0.89,4.25 -0.48,6.44 0.44,2.33 3.43,2.16 4.57,0.6 2.43,-3.35 4.02,-7.47 4.27,-11.61 0.22,-3.63 -1.53,-7.27 -5.41,-7.72 0,1.67 0,3.33 0,5 2.35,-0.02 4.11,-2.67 2.56,-4.72 -1.28,-1.7 -4.06,-1.51 -5.04,0.41 -1.46,2.86 2.85,5.39 4.32,2.52 0.03,-0.07 0.07,-0.13 0.1,-0.2 -0.3,0.3 -0.6,0.6 -0.9,0.9 -0.06,0.03 -0.12,0.06 -0.17,0.09 -0.44,0 -0.89,0 -1.33,0 0.07,0.02 0.15,0.04 0.22,0.05 -0.37,-0.21 -0.74,-0.43 -1.1,-0.64 0.06,0.05 0.11,0.1 0.17,0.16 -0.21,-0.37 -0.43,-0.74 -0.64,-1.1 0.01,0.09 0.03,0.19 0.04,0.28 0.08,-0.64 0.17,-1.28 0.25,-1.93 -0.04,0.09 -0.08,0.17 -0.13,0.26 0.3,-0.3 0.6,-0.6 0.9,-0.9 -0.08,0.06 -0.16,0.11 -0.24,0.17 0.42,-0.11 0.84,-0.23 1.26,-0.34 -0.09,0 -0.19,0 -0.28,0 -1.35,0.01 -2.5,1.14 -2.5,2.5 0,1.48 1.15,2.34 2.5,2.5 -0.19,-0.02 -0.15,-0.02 -0.3,-0.13 0.05,0.04 0.27,0.3 0.14,0.1 0.29,0.47 0.33,0.55 0.48,1.14 0.2,0.84 0.1,1.93 -0.08,2.91 -0.54,2.86 -1.71,5.45 -3.41,7.8 1.52,0.2 3.05,0.4 4.57,0.6 -0.25,-1.31 -0.01,-2.55 0.48,-3.78 -1.22,0.5 -2.45,1 -3.67,1.49 1.21,0.74 1.96,2.52 1.39,3.84 1.52,0.2 3.05,0.4 4.57,0.6 -0.9,-2.4 -1.14,-4.86 -0.55,-7.37 -1.61,0 -3.21,0 -4.82,0 0.48,2.03 -0.03,3.94 -1.23,5.6 1.44,0 2.88,0 4.32,0 0.11,0.26 -0.02,0.01 0.02,-0.15 0.24,-0.9 -0.23,0.43 0.08,-0.46 0.11,-0.33 0.31,-0.61 0.58,-0.89 0.66,-0.65 1.1,-0.71 1.83,-0.45 -0.58,-0.58 -1.16,-1.16 -1.75,-1.75 0.5,2.71 -2.78,5.28 -5.25,4.62 0.61,0.8 1.22,1.61 1.84,2.41 -0.23,-4.72 1.11,-9.49 4.05,-13.23 -1.01,0.13 -2.02,0.26 -3.03,0.39 1.1,0.61 1.54,1.84 1.93,2.98 0.53,1.56 1.13,3.21 1.28,4.86 0.17,1.95 -0.91,5.38 -3.47,3.87 -2.49,-1.48 -1.94,-5.26 -1.21,-7.55 0.67,-2.08 2.97,-4.92 5.47,-3.66 -0.38,-0.5 -0.77,-1 -1.15,-1.49 1.07,3.78 1.79,10.69 -2.31,13.1 -1.22,0.72 -3.11,0.88 -4.08,-0.17 -1.39,-1.5 -0.51,-4.3 -0.04,-6 0.71,-2.57 1.7,-5.27 3.22,-7.48 0.11,-0.16 0.51,-0.31 0.21,-0.26 -0.34,0.06 0.04,0.12 0.06,0.14 0.22,0.33 0.99,0.55 1.33,0.8 0.84,0.63 1.59,1.43 2.17,2.31 3.02,4.51 2.73,10.15 1.95,15.3 -0.52,3.38 -1.13,6.75 -1.7,10.12 -0.29,1.73 -0.56,3.46 -0.88,5.18 -0.1,0.52 -0.26,1 -0.39,1.51 -0.32,1.26 -0.18,-0.25 -0.02,0.16 0.01,0.02 0.76,0.46 0.11,-0.04 0.38,0.5 0.77,1 1.15,1.49 -0.25,-0.77 -0.49,-1.54 -0.74,-2.31 -0.83,-2.58 -5.05,-2.27 -4.91,0.66 0.41,8.43 0.03,16.9 -1.24,25.24 1.61,0 3.21,0 4.82,0 -1.45,-4.19 -1.95,-8.5 -1.53,-12.92 -1.55,0.42 -3.11,0.84 -4.66,1.26 1.6,3.22 2.17,6.74 1.87,10.3 1.55,-0.42 3.11,-0.84 4.66,-1.26 -2.5,-4.44 -6.35,-11.57 -1.29,-15.74 -1.31,-0.17 -2.62,-0.34 -3.93,-0.51 2.08,2.9 2.9,6.42 2.05,9.92 1.61,0 3.21,0 4.82,0 -2.9,-7.41 -4.05,-15.27 -3.41,-23.2 -0.83,0.83 -1.67,1.67 -2.5,2.5 0.64,-0.03 0.15,0.03 0.03,-0.07 0.02,0.02 0.19,0.26 0.27,0.41 0.25,0.46 0.38,1.01 0.47,1.54 0.27,1.66 0.22,3.74 0.2,5.52 -0.06,4.09 -0.59,8.12 -1.55,12.1 1.52,-0.2 3.05,-0.4 4.57,-0.6 -5.82,-9.26 -7.97,-20.61 -5.75,-31.35 -1.61,0 -3.21,0 -4.82,0 2.83,9.67 4.47,19.62 4.88,29.69 1.55,-0.42 3.11,-0.84 4.66,-1.26 -3.65,-8.08 -5.02,-17.02 -4.21,-25.83 -1.64,0.22 -3.27,0.44 -4.91,0.66 2.35,8.88 3.83,17.95 4.39,27.12 1.55,-0.42 3.11,-0.84 4.66,-1.26 -3.79,-8.76 -1.91,-18.88 -0.25,-27.91 -1.61,0 -3.21,0 -4.82,0 1.18,5.34 1.75,10.76 1.75,16.22 0,2.84 4.12,3.37 4.91,0.66 1.57,-5.35 3.14,-10.69 4.71,-16.04 -1.61,0 -3.21,0 -4.82,0 0.43,1.83 0.86,3.65 1.29,5.48 0.58,2.48 4.13,2.28 4.82,0 0.78,-2.57 1.18,-5.24 1.23,-7.93 -1.67,0 -3.33,0 -5,0 0.47,5.64 0.93,11.27 1.4,16.91 0.1,1.24 0.87,2.3 2.17,2.46 1.1,0.13 2.57,-0.55 2.74,-1.79 0.2,-1.42 0.4,-2.84 0.59,-4.27 -1.64,-0.22 -3.27,-0.44 -4.91,-0.66 -0.31,8.18 -0.62,16.36 -0.93,24.54 -0.15,4.05 -0.31,8.1 -0.46,12.15 -0.13,3.51 -1.02,7.73 2.18,10.12 1.58,1.18 3.75,-0.43 3.76,-2.16 0.02,-1.92 0.03,-3.83 0.05,-5.75 -1.67,0 -3.33,0 -5,0 0.23,1.89 0.46,3.78 0.69,5.66 1.67,0 3.33,0 5,0 -0.22,-1.74 -0.45,-3.49 -0.67,-5.23 -0.17,-1.34 -1.03,-2.5 -2.5,-2.5 -1.24,0 -2.65,1.15 -2.5,2.5 0.13,1.2 0.26,2.4 0.39,3.6 1.64,-0.22 3.27,-0.44 4.91,-0.66 -0.52,-2.67 -1.03,-5.34 -1.55,-8 -0.26,-1.33 -1.85,-2.08 -3.08,-1.75 -1.41,0.39 -1.97,1.74 -1.75,3.08 0.15,0.88 0.18,1.86 0.05,2.75 1.61,0 3.21,0 4.82,0 -0.97,-2.52 -1.33,-5.05 -1.11,-7.74 -1.64,0.22 -3.27,0.44 -4.91,0.66 0.15,0.85 0.29,1.71 0.44,2.56 0.21,1.21 1.62,1.96 2.74,1.79 1.3,-0.2 2.04,-1.18 2.17,-2.46 0.93,-9.64 1.86,-19.29 2.79,-28.93 0.27,-2.77 -4.51,-3.46 -4.91,-0.66 -0.77,5.34 -1.55,10.68 -2.32,16.01 1.64,0.22 3.27,0.44 4.91,0.66 0.49,-7.38 0.99,-14.76 1.48,-22.15 -1.67,0 -3.33,0 -5,0 -0.13,8.4 -0.99,16.74 -2.62,24.98 1.64,0.22 3.27,0.44 4.91,0.66 0.8,-6.76 1.6,-13.53 2.39,-20.29 -1.67,0 -3.33,0 -5,0 -0.4,8.25 -1.89,16.37 -4.37,24.25 1.61,0.44 3.21,0.89 4.82,1.33 1.3,-5.16 2.23,-10.38 2.86,-15.66 0.15,-1.22 -1.06,-2.32 -2.17,-2.46 -1.24,-0.15 -2.37,0.57 -2.74,1.79 -1.93,6.35 -3.07,12.92 -3.45,19.55 -0.08,1.35 1.2,2.5 2.5,2.5 1.44,0 2.39,-1.15 2.5,-2.5 0.23,-2.78 -0.1,-5.58 -0.93,-8.24 -0.37,-1.18 -1.5,-1.98 -2.74,-1.79 -1.1,0.17 -2.32,1.21 -2.17,2.46 0.69,5.64 1.68,11.23 3.05,16.75 0.77,3.12 5.59,1.8 4.82,-1.33 -1.15,-4.72 -3.1,-9.24 -5.74,-13.32 -1.24,-1.92 -4.88,-1.37 -4.66,1.26 0.45,5.31 1.42,10.56 2.97,15.67 1.52,-0.64 3.05,-1.28 4.57,-1.93 -1.7,-3.79 -3.4,-7.59 -5.11,-11.38 -1.05,-2.34 -4.68,-1.07 -4.66,1.26 0.02,2.43 1.03,4.79 2.93,6.34 1.05,0.85 2.51,1.02 3.54,0 0.91,-0.84 1.08,-2.64 0.03,-3.5 z"
   id="path58" />&#10;		</g>&#10;	</g>&#10;	<g
   id="g62">&#10;		<g
   id="g61">&#10;			<path
   fill="#516e8b"
   d="m 386.32,387.68 c 3.22,0 3.22,-5 0,-5 -3.22,0 -3.23,5 0,5 z"
   id="path60" />&#10;		</g>&#10;	</g>&#10;	<g
   id="g64">&#10;		<g
   id="g63">&#10;			<path
   fill="#516e8b"
   d="m 386.18,388.07 c 0.7,-0.66 1.43,-1.28 2.19,-1.87 -0.17,0.13 -0.34,0.26 -0.51,0.39 1.56,-1.2 3.23,-2.23 5,-3.08 0.54,-0.26 1,-0.94 1.15,-1.49 0.16,-0.6 0.09,-1.4 -0.25,-1.93 -0.34,-0.53 -0.86,-1 -1.49,-1.15 -0.69,-0.16 -1.29,-0.05 -1.93,0.25 -2.82,1.36 -5.42,3.19 -7.7,5.35 -0.95,0.9 -0.98,2.64 0,3.54 1.03,0.93 2.52,0.96 3.54,-0.01 z"
   id="path62" />&#10;		</g>&#10;	</g>&#10;	<g
   id="g66">&#10;		<g
   id="g65">&#10;			<path
   fill="#516e8b"
   d="m 392.17,382.62 c 0.26,0.38 0.52,0.75 0.77,1.13 0.16,0.29 0.37,0.53 0.64,0.7 0.24,0.22 0.52,0.37 0.85,0.45 0.33,0.1 0.66,0.12 1,0.04 0.33,-0.02 0.64,-0.11 0.93,-0.3 0.17,-0.13 0.34,-0.26 0.51,-0.39 0.31,-0.31 0.52,-0.68 0.64,-1.1 0.03,-0.22 0.06,-0.44 0.09,-0.66 0,-0.45 -0.12,-0.87 -0.34,-1.26 -0.26,-0.38 -0.52,-0.75 -0.77,-1.13 -0.16,-0.29 -0.37,-0.53 -0.64,-0.7 -0.24,-0.22 -0.52,-0.37 -0.85,-0.45 -0.33,-0.1 -0.66,-0.12 -1,-0.04 -0.33,0.02 -0.64,0.11 -0.93,0.3 -0.17,0.13 -0.34,0.26 -0.51,0.39 -0.31,0.31 -0.52,0.68 -0.64,1.1 -0.03,0.22 -0.06,0.44 -0.09,0.66 0,0.44 0.11,0.87 0.34,1.26 z"
   id="path64" />&#10;		</g>&#10;	</g>&#10;	<g
   id="g68">&#10;		<g
   id="g67">&#10;			<path
   fill="#ffffff"
   d="m 392.59,400.34 c -0.03,-0.26 -0.04,-0.54 -0.12,-0.8 -0.08,-0.25 -0.18,-0.49 -0.3,-0.73 -0.03,-0.05 -0.06,-0.1 -0.09,-0.14 -0.1,-0.14 -0.31,-0.44 -0.49,-0.61 -0.02,-0.02 -0.04,-0.04 -0.06,-0.05 -0.18,-0.14 -0.36,-0.3 -0.55,-0.42 -0.13,-0.08 -0.29,-0.14 -0.42,-0.19 -0.13,-0.06 -0.29,-0.14 -0.44,-0.17 -0.13,-0.03 -0.28,-0.04 -0.4,-0.06 -0.12,-0.02 -0.24,-0.04 -0.36,-0.05 -0.34,-0.01 -0.67,0.06 -0.96,0.22 -0.31,0.1 -0.58,0.27 -0.8,0.52 -0.01,0.01 -0.02,0.01 -0.02,0.02 -0.02,0.02 -0.05,0.04 -0.07,0.07 -0.04,0.05 -0.09,0.09 -0.13,0.14 -0.2,0.25 -0.43,0.51 -0.58,0.8 -0.16,0.29 -0.29,0.6 -0.39,0.92 -0.1,0.32 -0.12,0.69 -0.16,1.01 0,0.45 0.12,0.87 0.34,1.26 0.16,0.29 0.37,0.53 0.64,0.7 0.24,0.22 0.52,0.37 0.85,0.45 0.44,0.12 0.89,0.12 1.33,0 0.29,-0.07 0.58,-0.21 0.85,-0.34 0.08,-0.04 0.15,-0.09 0.22,-0.14 0.21,-0.16 0.51,-0.35 0.7,-0.57 0.19,-0.22 0.39,-0.46 0.54,-0.71 0.51,-0.87 0.67,-1.96 0.4,-2.93 -0.12,-0.42 -0.33,-0.79 -0.64,-1.1 -0.23,-0.24 -0.49,-0.42 -0.8,-0.52 -0.3,-0.16 -0.62,-0.23 -0.96,-0.22 -0.45,0 -0.87,0.12 -1.26,0.34 -0.26,0.13 -0.52,0.36 -0.72,0.53 -0.07,0.06 -0.14,0.12 -0.2,0.2 -0.17,0.21 -0.38,0.45 -0.52,0.7 -0.14,0.26 -0.26,0.55 -0.35,0.83 -0.03,0.09 -0.05,0.18 -0.06,0.27 -0.04,0.3 -0.12,0.61 -0.1,0.91 0.02,0.25 0.06,0.51 0.1,0.75 0.01,0.04 0.02,0.09 0.03,0.13 0.08,0.28 0.2,0.56 0.34,0.82 0.14,0.25 0.32,0.48 0.52,0.68 0.17,0.17 0.47,0.38 0.59,0.47 0.04,0.03 0.08,0.06 0.13,0.08 0.11,0.05 0.24,0.1 0.34,0.14 0.06,0.02 0.23,0.11 0.34,0.14 0.04,0.01 0.08,0.02 0.11,0.03 0.66,0.12 0.86,0.12 1.52,0 0.27,-0.05 0.57,-0.21 0.79,-0.31 0.08,-0.04 0.16,-0.08 0.23,-0.13 0.21,-0.15 0.47,-0.33 0.66,-0.53 0.19,-0.21 0.38,-0.44 0.52,-0.68 0.02,-0.04 0.04,-0.08 0.06,-0.12 0.08,-0.18 0.19,-0.43 0.26,-0.61 0.01,-0.02 0.02,-0.05 0.02,-0.07 0.08,-0.28 0.12,-0.59 0.12,-0.88 -0.01,-0.26 -0.04,-0.52 -0.11,-0.77 0,-0.02 -0.01,-0.03 -0.02,-0.05 -0.04,-0.11 -0.09,-0.21 -0.13,-0.32 -0.04,-0.11 -0.09,-0.21 -0.13,-0.32 -0.13,-0.26 -0.32,-0.51 -0.55,-0.7 -0.23,-0.24 -0.49,-0.42 -0.8,-0.52 -0.3,-0.16 -0.62,-0.23 -0.96,-0.22 -0.34,-0.01 -0.67,0.06 -0.96,0.22 -0.31,0.1 -0.58,0.27 -0.8,0.52 -0.13,0.17 -0.26,0.34 -0.39,0.51 -0.23,0.39 -0.34,0.81 -0.34,1.26 0.03,0.22 0.06,0.44 0.09,0.66 0.12,0.42 0.33,0.79 0.64,1.1 0.04,0.03 0.07,0.06 0.1,0.1 -0.13,-0.17 -0.26,-0.34 -0.39,-0.51 0.03,0.04 0.05,0.07 0.06,0.11 -0.08,-0.2 -0.17,-0.4 -0.25,-0.6 0.02,0.04 0.03,0.09 0.04,0.14 -0.03,-0.22 -0.06,-0.44 -0.09,-0.66 0,0.05 0,0.09 0,0.14 0.03,-0.22 0.06,-0.44 0.09,-0.66 -0.01,0.07 -0.03,0.13 -0.05,0.2 0.08,-0.2 0.17,-0.4 0.25,-0.6 -0.03,0.08 -0.08,0.15 -0.13,0.22 0.13,-0.17 0.26,-0.34 0.39,-0.51 -0.06,0.08 -0.13,0.14 -0.2,0.2 0.17,-0.13 0.34,-0.26 0.51,-0.39 -0.08,0.06 -0.16,0.11 -0.24,0.14 0.2,-0.08 0.4,-0.17 0.6,-0.25 -0.07,0.03 -0.14,0.05 -0.21,0.06 0.22,-0.03 0.44,-0.06 0.66,-0.09 -0.06,0.01 -0.12,0.01 -0.17,0 0.22,0.03 0.44,0.06 0.66,0.09 -0.05,-0.01 -0.1,-0.02 -0.15,-0.04 0.2,0.08 0.4,0.17 0.6,0.25 -0.06,-0.03 -0.11,-0.06 -0.17,-0.1 0.17,0.13 0.34,0.26 0.51,0.39 -0.06,-0.05 -0.11,-0.1 -0.16,-0.16 0.13,0.17 0.26,0.34 0.39,0.51 -0.04,-0.06 -0.08,-0.12 -0.11,-0.19 0.08,0.2 0.17,0.4 0.25,0.6 -0.04,-0.09 -0.06,-0.18 -0.07,-0.27 0.03,0.22 0.06,0.44 0.09,0.66 -0.01,-0.11 -0.01,-0.21 0,-0.32 -0.03,0.22 -0.06,0.44 -0.09,0.66 0.02,-0.13 0.05,-0.26 0.1,-0.38 -0.08,0.2 -0.17,0.4 -0.25,0.6 0.05,-0.11 0.1,-0.21 0.18,-0.3 -0.13,0.17 -0.26,0.34 -0.39,0.51 0.07,-0.09 0.14,-0.16 0.23,-0.23 -0.17,0.13 -0.34,0.26 -0.51,0.39 0.06,-0.05 0.13,-0.09 0.2,-0.12 -1.22,-0.5 -2.45,-1 -3.67,-1.49 0.02,0.06 0.03,0.12 0.04,0.18 -0.03,-0.22 -0.06,-0.44 -0.09,-0.66 0.01,0.11 0.01,0.21 0,0.31 0.03,-0.22 0.06,-0.44 0.09,-0.66 -0.02,0.11 -0.05,0.22 -0.09,0.33 0.08,-0.2 0.17,-0.4 0.25,-0.6 -0.05,0.11 -0.11,0.22 -0.19,0.32 0.13,-0.17 0.26,-0.34 0.39,-0.51 -0.07,0.09 -0.15,0.17 -0.24,0.24 0.17,-0.13 0.34,-0.26 0.51,-0.39 -0.08,0.06 -0.17,0.12 -0.27,0.16 0.2,-0.08 0.4,-0.17 0.6,-0.25 -0.07,0.03 -0.13,0.05 -0.2,0.06 1.05,0.8 2.11,1.61 3.16,2.41 0,-0.01 0,-0.02 0,-0.03 -0.03,0.22 -0.06,0.44 -0.09,0.66 0.02,-0.17 0.07,-0.33 0.13,-0.49 -0.08,0.2 -0.17,0.4 -0.25,0.6 0.06,-0.15 0.14,-0.28 0.24,-0.41 -0.13,0.17 -0.26,0.34 -0.39,0.51 0.07,-0.09 0.15,-0.18 0.24,-0.26 -0.59,0.24 -1.18,0.49 -1.77,0.73 0.01,0 0.02,0 0.03,0 -0.22,-0.03 -0.44,-0.06 -0.66,-0.09 0.07,0.01 0.14,0.03 0.21,0.06 -0.2,-0.08 -0.4,-0.17 -0.6,-0.25 0.06,0.03 0.12,0.06 0.17,0.1 -0.17,-0.13 -0.34,-0.26 -0.51,-0.39 0.06,0.05 0.11,0.1 0.16,0.16 -0.13,-0.17 -0.26,-0.34 -0.39,-0.51 0.05,0.06 0.08,0.12 0.11,0.19 -0.08,-0.2 -0.17,-0.4 -0.25,-0.6 0.03,0.06 0.04,0.12 0.05,0.19 -0.03,-0.22 -0.06,-0.44 -0.09,-0.66 0,0.01 0,0.02 0,0.03 -0.01,0.34 0.06,0.67 0.22,0.96 0.1,0.31 0.27,0.58 0.52,0.8 0.23,0.24 0.49,0.42 0.8,0.52 0.3,0.16 0.62,0.23 0.96,0.22 0.22,-0.03 0.44,-0.06 0.66,-0.09 0.42,-0.12 0.79,-0.33 1.1,-0.64 0.13,-0.17 0.26,-0.34 0.39,-0.51 0.18,-0.39 0.3,-0.81 0.3,-1.26 z"
   id="path66" />&#10;		</g>&#10;	</g>&#10;	<g
   id="g70">&#10;		<g
   id="g69">&#10;			<path
   fill="#516e8b"
   d="m 397.11,414.06 c -0.74,3.82 -0.79,7.63 -0.21,11.47 0.15,0.96 1.21,1.67 2.08,1.79 0.95,0.13 2.02,-0.31 2.49,-1.19 0.63,-1.18 0.79,-2.41 0.49,-3.71 -0.29,-1.28 -1.83,-2.15 -3.08,-1.75 -1.34,0.43 -2.06,1.71 -1.75,3.08 0.06,0.27 0.05,0.22 -0.01,-0.17 0,0.11 0,0.22 -0.01,0.34 0.06,-0.39 0.05,-0.44 -0.01,-0.17 0.16,-0.33 0.17,-0.38 0.05,-0.14 1.52,0.2 3.05,0.4 4.57,0.6 -0.02,-0.13 -0.04,-0.26 -0.06,-0.39 0.01,0.09 0.02,0.18 0.04,0.28 -0.04,-0.22 -0.06,-0.46 -0.08,-0.68 -0.04,-0.39 -0.07,-0.78 -0.1,-1.17 -0.05,-0.82 -0.07,-1.63 -0.05,-2.45 0.02,-0.78 0.06,-1.57 0.14,-2.35 0.02,-0.2 0.04,-0.39 0.07,-0.58 0.06,-0.59 -0.07,0.42 0.02,-0.11 0.07,-0.45 0.15,-0.9 0.23,-1.35 0.25,-1.28 -0.36,-2.76 -1.75,-3.08 -1.24,-0.3 -2.81,0.36 -3.07,1.73 z"
   id="path68" />&#10;		</g>&#10;	</g>&#10;	<g
   id="g72">&#10;		<g
   id="g71">&#10;			<path
   fill="#516e8b"
   d="m 397.41,416.26 c 0.59,5.32 0.59,10.68 -0.01,16 1.67,0 3.33,0 5,0 0.18,-6.59 0.12,-13.19 -0.16,-19.78 -0.14,-3.2 -4.98,-3.24 -5,0 -0.04,5.76 0.38,11.49 1.18,17.19 0.39,2.76 5.24,2.14 4.91,-0.66 -0.78,-6.58 -0.98,-13.21 -0.6,-19.82 -1.64,0.22 -3.27,0.44 -4.91,0.66 0.82,4.47 1.06,9 0.82,13.53 -0.15,2.77 4.43,3.47 4.91,0.66 0.69,-4.06 0.98,-8.14 0.79,-12.26 -0.15,-3.2 -4.99,-3.24 -5,0 -0.01,3.98 0.18,7.96 0.55,11.92 0.12,1.24 0.86,2.3 2.17,2.46 1.12,0.13 2.54,-0.55 2.74,-1.79 0.69,-4.25 0.14,-8.32 -1.66,-12.23 -1.11,-2.4 -4.56,-1.01 -4.66,1.26 -0.25,5.46 -1.51,10.87 -3.77,15.85 1.55,0.42 3.11,0.84 4.66,1.26 -0.6,-5.43 -1.21,-10.86 -1.81,-16.29 -0.32,-2.86 -3.83,-3.33 -4.91,-0.66 -1.55,3.84 -2.32,7.95 -2.34,12.1 1.67,0 3.33,0 5,0 -0.04,-4 -0.08,-8 -0.12,-12 -0.02,-1.98 -2.85,-3.54 -4.27,-1.77 -1.35,1.69 -2.1,3.49 -2.17,5.68 1.67,0 3.33,0 5,0 -0.07,-2.02 -0.14,-4.05 -0.22,-6.07 -0.11,-3.21 -5,-3.23 -5,0 -0.01,7.13 0.67,14.24 1.97,21.25 0.51,2.76 5.08,2.14 4.91,-0.66 -0.09,-1.42 -0.17,-2.85 -0.26,-4.27 -1.67,0 -3.33,0 -5,0 0.61,5.2 1.21,10.39 1.82,15.59 1.64,-0.22 3.27,-0.44 4.91,-0.66 -0.19,-0.81 -0.09,-1.45 0.19,-2.23 -1.64,-0.22 -3.27,-0.44 -4.91,-0.66 0.21,2.55 0.36,5.11 0.42,7.67 0.02,0.79 0.25,2 -0.2,2.7 -0.41,0.65 -1.41,1.02 -2.04,1.4 -3.72,2.22 -6.12,6.41 -5.55,10.8 1.64,-0.22 3.27,-0.44 4.91,-0.66 -0.52,-1.28 -1.04,-2.56 -1.56,-3.84 -0.42,-1.04 -1.22,-1.84 -2.41,-1.84 -1.02,0 -2.23,0.77 -2.41,1.84 -0.28,1.65 -0.8,3.12 -1.5,4.63 -0.84,1.8 0.13,3.81 1.72,4.83 3.19,2.05 6.43,-0.08 8.47,-2.62 -1.42,-0.59 -2.85,-1.18 -4.27,-1.77 -0.14,2.89 1.84,5.46 4.59,6.23 1.39,0.39 2.6,-0.49 3.08,-1.75 1.09,-2.92 0.8,-5.95 -0.4,-8.77 -1.1,-2.59 -5.48,-0.74 -4.57,1.93 0.98,2.88 2.19,5.68 3.61,8.37 0.58,1.09 2.03,1.5 3.12,1.02 1.22,-0.54 1.65,-1.68 1.45,-2.95 -0.36,-2.26 -1.07,-4.36 -2.03,-6.43 -0.52,-1.11 -2.08,-1.48 -3.12,-1.02 -1.19,0.52 -1.69,1.69 -1.45,2.95 0.55,2.91 1.92,5.5 3.85,7.73 1.39,1.61 4.41,0.35 4.27,-1.77 -0.16,-2.38 -0.32,-4.76 -0.47,-7.14 -1.64,0.22 -3.27,0.44 -4.91,0.66 0.85,2.49 1.71,4.98 2.56,7.47 0.75,2.2 4.23,2.55 4.82,0 0.65,-2.8 0.24,-5.7 -1.33,-8.13 -1.54,-2.38 -5.22,-0.87 -4.57,1.93 0.51,2.17 1.32,4.25 2.39,6.21 1.12,2.06 4.95,1.26 4.66,-1.26 -0.31,-2.69 -0.8,-5.34 -1.56,-7.94 -1.61,0.44 -3.21,0.89 -4.82,1.33 0.83,2.69 1.67,5.38 2.5,8.07 0.85,2.74 4.74,2.14 4.91,-0.66 0.18,-2.84 -0.47,-5.57 -1.75,-8.1 -1.27,-2.51 -5.48,-0.77 -4.57,1.93 0.61,1.82 1.23,3.64 1.84,5.45 1.52,-0.64 3.05,-1.28 4.57,-1.93 -0.59,-1.12 -1.19,-2.24 -1.78,-3.37 -1.51,-2.84 -5.82,-0.32 -4.32,2.52 0.59,1.12 1.19,2.24 1.78,3.37 1.31,2.47 5.48,0.78 4.57,-1.93 -0.61,-1.82 -1.23,-3.64 -1.84,-5.45 -1.52,0.64 -3.05,1.28 -4.57,1.93 0.89,1.76 1.19,3.62 1.07,5.58 1.64,-0.22 3.27,-0.44 4.91,-0.66 -0.83,-2.69 -1.67,-5.38 -2.5,-8.07 -0.95,-3.06 -5.73,-1.77 -4.82,1.33 0.64,2.16 1.13,4.37 1.38,6.61 1.55,-0.42 3.11,-0.84 4.66,-1.26 -0.87,-1.6 -1.47,-3.25 -1.89,-5.02 -1.52,0.64 -3.05,1.28 -4.57,1.93 0.85,1.31 1.18,2.74 0.83,4.28 1.61,0 3.21,0 4.82,0 -0.85,-2.49 -1.71,-4.98 -2.56,-7.47 -0.86,-2.52 -5.11,-2.31 -4.91,0.66 0.16,2.38 0.32,4.76 0.47,7.14 1.42,-0.59 2.85,-1.18 4.27,-1.77 -1.37,-1.59 -2.17,-3.47 -2.56,-5.52 -1.52,0.64 -3.05,1.28 -4.57,1.93 0.77,1.66 1.24,3.43 1.52,5.24 1.52,-0.64 3.05,-1.28 4.57,-1.93 -1.23,-2.31 -2.26,-4.69 -3.11,-7.17 -1.52,0.64 -3.05,1.28 -4.57,1.93 0.68,1.6 0.49,3.34 -0.1,4.92 1.03,-0.58 2.05,-1.16 3.08,-1.75 -0.69,-0.19 -0.95,-0.72 -0.92,-1.41 0.1,-2.04 -2.9,-3.47 -4.27,-1.77 -0.53,0.66 -1.14,1.6 -1.95,1.94 -0.03,0.01 -0.28,0.13 -0.25,0.02 0.03,-0.11 0.27,1.16 0.21,0.62 -0.11,0.42 -0.23,0.84 -0.34,1.26 0.96,-1.84 1.66,-3.77 2.01,-5.82 -1.61,0 -3.21,0 -4.82,0 0.52,1.28 1.04,2.56 1.56,3.84 0.47,1.15 1.42,1.99 2.74,1.79 1.1,-0.17 2.33,-1.21 2.17,-2.46 -0.23,-1.74 0.08,-3.45 1.16,-4.88 1.17,-1.53 3.12,-2.12 4.54,-3.37 1.91,-1.69 2.13,-4.01 2.08,-6.4 -0.06,-2.64 -0.2,-5.28 -0.42,-7.91 -0.24,-2.82 -3.95,-3.39 -4.91,-0.66 -0.56,1.59 -0.58,3.25 -0.19,4.89 0.64,2.68 5.24,2.18 4.91,-0.66 -0.61,-5.2 -1.21,-10.39 -1.82,-15.59 -0.16,-1.34 -1.04,-2.5 -2.5,-2.5 -1.29,0 -2.58,1.15 -2.5,2.5 0.09,1.42 0.17,2.85 0.26,4.27 1.64,-0.22 3.27,-0.44 4.91,-0.66 -1.22,-6.58 -1.8,-13.24 -1.79,-19.92 -1.67,0 -3.33,0 -5,0 0.07,2.02 0.14,4.05 0.22,6.07 0.11,3.21 4.9,3.22 5,0 0.02,-0.76 0.22,-1.54 0.7,-2.14 -1.42,-0.59 -2.85,-1.18 -4.27,-1.77 0.04,4 0.08,8 0.12,12 0.03,3.22 4.98,3.22 5,0 0.02,-3.73 0.77,-7.31 2.16,-10.77 -1.64,-0.22 -3.27,-0.44 -4.91,-0.66 0.6,5.43 1.21,10.86 1.81,16.29 0.12,1.11 0.69,2.1 1.84,2.41 0.99,0.27 2.37,-0.16 2.82,-1.15 2.64,-5.82 4.16,-11.98 4.46,-18.38 -1.55,0.42 -3.11,0.84 -4.66,1.26 1.19,2.58 1.61,5.57 1.15,8.38 1.64,0.22 3.27,0.44 4.91,0.66 -0.38,-3.96 -0.56,-7.94 -0.55,-11.92 -1.67,0 -3.33,0 -5,0 0.18,3.66 0.01,7.32 -0.61,10.93 1.64,0.22 3.27,0.44 4.91,0.66 0.26,-4.99 -0.1,-9.95 -1,-14.86 -0.22,-1.21 -1.61,-1.96 -2.74,-1.79 -1.27,0.19 -2.09,1.18 -2.17,2.46 -0.38,6.62 -0.18,13.24 0.6,19.82 1.64,-0.22 3.27,-0.44 4.91,-0.66 -0.74,-5.25 -1.04,-10.56 -1,-15.86 -1.67,0 -3.33,0 -5,0 0.28,6.59 0.34,13.18 0.16,19.78 -0.04,1.35 1.17,2.5 2.5,2.5 1.48,0 2.35,-1.15 2.5,-2.5 0.6,-5.32 0.6,-10.68 0.01,-16 -0.15,-1.34 -1.04,-2.5 -2.5,-2.5 -1.24,-0.05 -2.65,1.1 -2.5,2.45 z"
   id="path70" />&#10;		</g>&#10;	</g>&#10;	<g
   id="g74">&#10;		<g
   id="g73">&#10;			<path
   fill="#516e8b"
   d="m 398.26,389.25 c -0.45,-0.96 -0.9,-1.92 -1.36,-2.89 -1.44,0.84 -2.88,1.68 -4.32,2.52 1.26,2.48 2.11,5.2 2.43,7.98 1.55,-0.42 3.11,-0.84 4.66,-1.26 -0.78,-1.74 -1.46,-3.52 -2.08,-5.32 -1.52,0.64 -3.05,1.28 -4.57,1.93 2.69,5.97 4.19,12.47 4.45,19.01 0.13,3.2 5.04,3.23 5,0 -0.03,-3.13 -0.07,-6.26 -0.1,-9.4 -1.64,0.22 -3.27,0.44 -4.91,0.66 1.5,8.64 1.85,17.45 1.17,26.19 1.67,0 3.33,0 5,0 -0.45,-4.83 -0.61,-9.68 -0.48,-14.53 -1.67,0 -3.33,0 -5,0 0.21,7.94 0.05,15.89 -0.46,23.82 -0.18,2.78 4.4,3.45 4.91,0.66 1.36,-7.44 1.52,-14.98 1.15,-22.52 -0.18,-3.7 -0.47,-7.4 -0.77,-11.1 -0.28,-3.51 -0.63,-7 -2.36,-10.13 -1.56,-2.82 -5.88,-0.3 -4.32,2.52 1.48,2.67 1.54,5.84 1.78,8.81 0.27,3.46 0.54,6.92 0.7,10.38 0.32,6.91 0.25,13.88 -1,20.71 1.64,0.22 3.27,0.44 4.91,0.66 0.51,-7.93 0.67,-15.87 0.46,-23.82 -0.08,-3.22 -4.91,-3.22 -5,0 -0.13,4.85 0.03,9.7 0.48,14.53 0.3,3.19 4.75,3.24 5,0 0.72,-9.2 0.22,-18.43 -1.35,-27.52 -0.49,-2.81 -4.94,-2.1 -4.91,0.66 0.03,3.13 0.07,6.26 0.1,9.4 1.67,0 3.33,0 5,0 -0.31,-7.48 -2.06,-14.72 -5.14,-21.53 -1.16,-2.57 -5.48,-0.75 -4.57,1.93 0.75,2.21 1.62,4.38 2.58,6.51 0.99,2.21 4.93,1.16 4.66,-1.26 -0.42,-3.7 -1.42,-7.17 -3.11,-10.5 -0.61,-1.2 -2.3,-1.55 -3.42,-0.9 -1.25,0.73 -1.47,2.19 -0.9,3.42 0.45,0.96 0.9,1.92 1.36,2.89 0.57,1.22 2.33,1.53 3.42,0.9 1.27,-0.72 1.49,-2.18 0.91,-3.41 z"
   id="path72" />&#10;		</g>&#10;	</g>&#10;</g>&#10;</svg>
